# xmcd
#
# Track frame offsets:
#	150
#	102413
#	131538
#	149400
#	167833
#	187510
#
# Disc length: 2782
#
# Revision: 3
# Processed by: cddbd v1.5.1PL0 Copyright (c) Steve Scherf et al.
# Submitted via: VisiTrax 2.9.5.180 - For more info visit www.synapsa.com
# Normalized: r2:DSETVAR1
#
DISCID=4b0adc06
DTITLE=Various Artist - Arista Nashville Dance Mixes
DYEAR=1994
DGENRE=
TTITLE0=Various Artist - Dance Mix Medley (DJ's Time Out)
TTITLE1=Brooks and Dunnn - Boot Scootin' Boogie (Radio Version)
TTITLE2=The Tractors - Baby Likes To Rock It (Radio Version)
TTITLE3=Alan Jackson - Chattahoochee (Radio Version)
TTITLE4=PamTillis - Cleopatra, Queen Of Denial
TTITLE5=Brooks and Dunn - Rock My World, Little Country Girl
EXTD=
EXTT0=Boot Scootin' Boogie\nBaby Likes To Rock It\nChattahoochee\nCleopatra, Queen of Denial\nRock My World, Little Country Girl
EXTT1=
EXTT2=
EXTT3=
EXTT4=
EXTT5=
PLAYORDER=
